<svg width="50" height="50" viewBox="0 0 23 23" fill="none" xmlns="http://www.w3.org/2000/svg">
<path d="M15.1532 8.3052C14.7338 8.3052 14.3859 7.95736 14.3859 7.53791V6.12609C14.3859 5.05189 13.9256 4.00836 13.1276 3.28199C12.3194 2.54539 11.2758 2.20778 10.1709 2.31008C8.32943 2.484 6.71299 4.36643 6.71299 6.3307V7.32307C6.71299 7.74252 6.36515 8.09036 5.9457 8.09036C5.52625 8.09036 5.17841 7.74252 5.17841 7.32307V6.32047C5.17841 3.56844 7.39844 1.03126 10.0277 0.775496C11.5623 0.632268 13.0355 1.1131 14.1609 2.14639C15.276 3.15922 15.9205 4.61196 15.9205 6.12609V7.53791C15.9205 7.95736 15.5727 8.3052 15.1532 8.3052Z" fill="white"/>
<path d="M15.2999 22.1072H8.35471C3.00689 22.1072 2.01141 20.0265 1.75676 18.004L0.888604 12.2072C0.761275 11.162 0.714974 9.66202 1.93039 8.53944C2.97217 7.57169 4.6969 7.10718 7.19718 7.10718H16.4574C18.9693 7.10718 20.694 7.58137 21.7242 8.53944C22.9281 9.66202 22.8933 11.162 22.766 12.1878L21.8979 18.004C21.6432 20.0265 20.6477 22.1072 15.2999 22.1072ZM7.19718 8.55879C5.24094 8.55879 3.8982 8.87815 3.21525 9.51685C2.64806 10.0394 2.46285 10.8427 2.61333 12.0427L3.48149 17.8394C3.67827 19.3878 4.18758 20.6652 8.35471 20.6652H15.2999C19.467 20.6652 19.9764 19.3975 20.1731 17.8588L21.0413 12.0427C21.1918 10.862 21.0066 10.0588 20.4394 9.52653C19.7564 8.87815 18.4137 8.55879 16.4574 8.55879H7.19718Z" fill="white"/>
<path d="M14.0485 12.9292C13.4756 12.9292 13.0152 12.4688 13.0152 11.9061C13.0152 11.3434 13.4756 10.8831 14.0383 10.8831C14.601 10.8831 15.0613 11.3434 15.0613 11.9061C15.0613 12.4688 14.6112 12.9292 14.0485 12.9292Z" fill="white"/>
<path d="M6.88705 12.9292C6.31414 12.9292 5.85376 12.4688 5.85376 11.9061C5.85376 11.3434 6.31414 10.8831 6.87682 10.8831C7.4395 10.8831 7.89988 11.3434 7.89988 11.9061C7.89988 12.4688 7.44973 12.9292 6.88705 12.9292Z" fill="white"/>
</svg>
